<svg id="Layer_5" data-name="Layer 5" xmlns="http://www.w3.org/2000/svg" viewBox="0 0 1406.55 841.89"><defs><style>.cls-1{fill:#84523e;}.cls-2{fill:#643a2c;}.cls-3{fill:none;stroke:#643a2c;stroke-miterlimit:10;stroke-width:0.25px;}.cls-4{fill:#4e2b1d;}.cls-5{font-size:64.29px;}.cls-11,.cls-5,.cls-8{fill:#2b0b00;font-family:Blueberry-Regular, Blueberry;}.cls-6{letter-spacing:0.02em;}.cls-7{letter-spacing:-0.01em;}.cls-8{font-size:21.8px;}.cls-9{letter-spacing:-0.01em;}.cls-10{letter-spacing:0.02em;}.cls-11{font-size:43.45px;}.cls-12{letter-spacing:-0.01em;}.cls-13{letter-spacing:-0.01em;}</style></defs><title>RESUME SIGN SVG</title><path class="cls-1" d="M402.35,265.8l.16-2.15c3.6.38,7.34.94,10.15,3.18,3,2.39,4.2,7.42,1.39,10l8.28,1.81a67,67,0,0,1-7.61,16.42c-2.41,3.78-6.22,7.72-10.6,6.79a2.62,2.62,0,0,0-.87,2.42l-.43.06c-13.35,2.25-26.49-5.11-40-5.34-4.81-.08-9.59.75-14.4.74-14,0-27-7.12-39.23-14-1.75-1-3.63-2.1-4.44-3.95-.7-1.59-.47-3.44-.86-5.13a7.46,7.46,0,0,0-7.19-5.43l0-1.94a511.05,511.05,0,0,0,72.21-3.7v0a27.15,27.15,0,0,1,12.61-3.79l.06-.29A92.09,92.09,0,0,1,402.12,268v0a2,2,0,0,1-.57-1.59A.83.83,0,0,1,402.35,265.8Z"/><path class="cls-2" d="M415.62,241.66c3.35,3.47.56,9.39-3.21,12.39s-8.65,5.13-10.62,9.53l.72.07-.16,2.15a.83.83,0,0,0-.79.57,2,2,0,0,0,.57,1.59v0a92.09,92.09,0,0,0-20.53-6.49c-31.29-6.21-66.1.77-98.32-4.81-7.71-1.33-15.34-3.4-23.16-3.61s-15.84,1.51-23.77,2.25a96.83,96.83,0,0,1-37.07-3.78c6.84-.74,13.7-1.33,20.49-2.43a138.48,138.48,0,0,0,42.74-14.37v-.16L408,239.41C410.74,239.5,413.74,239.71,415.62,241.66Z"/><path class="cls-2" d="M335.93,302.13l-.23-.8c-70.22-1.63-141-3.22-210.15,8.79l.26,1.48c43.34,6.52,88.11,13,130.54,2,7.35-1.91,14.57-4.33,22-5.71C297.39,304.36,317.44,307.69,335.93,302.13ZM199.18,333.45q-29-.27-57.9-1.1c-30.07-.86-60.15-2.11-90.1-4.89-5.37-.5-11.4-1.42-14.53-5.8s.67-12.55,5.73-10.71c-8.59-6.24-10.27-20.06-3.42-28.18.82-1,1.8-2,1.74-3.3a2,2,0,0,0-.1-.55c8.22-5,19-5.59,28.89-6.05q18.09-.84,36.13-2.73c16.17-1.7,32.32-4,48-8.23,10.06-2.69,19.93-6.14,30.14-8.15,5.12-1,10.29-1.65,15.48-2.21a96.83,96.83,0,0,0,37.07,3.78c7.93-.74,15.81-2.46,23.77-2.25s15.45,2.28,23.16,3.61c32.22,5.58,67-1.4,98.32,4.81l-.06.29a27.15,27.15,0,0,0-12.61,3.79v0a511.05,511.05,0,0,1-72.21,3.7l0,1.94a7.46,7.46,0,0,1,7.19,5.43c.39,1.69.16,3.54.86,5.13.81,1.85,2.69,3,4.44,3.95,12.25,6.88,25.19,14,39.23,14,4.81,0,9.59-.82,14.4-.74,13.54.23,26.68,7.59,40,5.34l.43-.06c.46,3.17,5.79,6.95,5.62,11-.09,1.89-1.43,3.47-2.86,4.71-7.56,6.6-18.33,7.66-28.34,8.35q-53.54,3.67-107.2,4.75-10,.21-20,.31-18.93.21-37.86.13Z"/><path class="cls-1" d="M164.83,355.32l-.05-1.56c11.63-.36,23.16-.7,34.72-.9q6.23-.11,12.47-.16c3.15,0,6.32,0,9.49,0q13.39,0,26.78-.42c25-.74,50-2.45,74.89-4.35,8.79-.67,20.35.51,22.4,9.08,1.54,6.4-3.8,12.69-3.26,19.23-3.28,8.38-9.83,15.4-17.36,20.49-8.85,6-19,9.63-29.13,13.1-12.43,4.27-25.1,8.41-38.23,9-8.15.39-17.43-.17-23.17,5.62l0,.94q-9.39.17-18.79.36-10.12.18-20.26.39L100.92,428c-7.59.15-16.57-.42-20.61-6.84C85,418,90.22,412.25,87,407.69a29,29,0,0,0-3.09-3c-6.51-6.81,2.19-17.68,3-27l2.71.18c.25-4.73,4.3-8.77,8.57-11.14,5.59-3.1,11.92-4.56,18.19-5.79A316,316,0,0,1,164.83,355.32ZM251.52,364a1.78,1.78,0,0,1-.62.75,10.5,10.5,0,0,1,1.3-.36c6.41-1.29,12.66,3.91,18.82,6.81a29.54,29.54,0,0,0,19.72,1.85,9.46,9.46,0,0,1,12.38-5,6.2,6.2,0,0,0,2.57.93c1.29,0,2.36-1,3.61-1.3s2.68.22,4,.41c6,.84,11.68-5,17.33-5.7l-4.34-.32a757.65,757.65,0,0,0-75.8-1.57A3.16,3.16,0,0,1,251.52,364Zm-94.2,50.31,0,.59c.76,2.54,3.54,3.94,6.17,4.29s5.32-.05,7.94.34a43.61,43.61,0,0,1,6.25,1.81A34.64,34.64,0,0,0,207,417c2.11-1.43,4.1-3.12,6.27-4.46l-1-1.11Zm-8.56.46-.06-1.22c-5.35.27-10.85-2.37-16.23-1.53-1.84.28-3.59,1-5.41,1.27-5.16.86-10.28-1.3-15.4-2.4-4.49-1-9.89-.74-13.08,2.29l.25.25c1.44,3.35,6,3.68,9.63,3.49ZM321,387.86q-5.64-.15-11.29-.2v-.77c-8.58,0-17.12-2.44-25.56-4.39-11.31-2.61-22.8-4.34-34.27-6.08l-45.31-6.84c-13.94-2.11-28.16-4.22-42.09-1.94-6.95,1.13-14.1,3.63-18.79,8.76a218.74,218.74,0,0,1-31.59-3L112,374.7c-.39,4.75,2.81,9.21,6.86,11.72s8.85,3.45,13.53,4.34L154.75,395a23.48,23.48,0,0,0,6.72.63,52.67,52.67,0,0,0,5.67-1.26c5-1.07,10.26-.27,15.36.45a475.29,475.29,0,0,0,57.66,4.31,568.54,568.54,0,0,0,57.78-2c8.26-.71,17.23-1.92,23-7.86Z"/><path class="cls-2" d="M342.28,376.33c.53,5.61,5.32,11.28,2.65,16.24-1.89,3.5-6.94,4.9-7.75,8.8-.69,3.31,2.17,6.29,2.64,9.64,1,7.32-8.52,11-15.88,11.66-13.55,1.26-27.18,1.53-40.79,1.79l-42.87.82-5.88.12,0-.94c5.74-5.79,15-5.23,23.17-5.62,13.13-.64,25.8-4.78,38.23-9,10.1-3.47,20.28-7.12,29.13-13.1,7.53-5.09,14.08-12.11,17.36-20.49C342.27,376.24,342.28,376.29,342.28,376.33Z"/><path class="cls-1" d="M335.7,301.33l.23.8c-18.49,5.56-38.54,2.23-57.54,5.74-7.47,1.38-14.69,3.8-22,5.71-42.43,11-87.2,4.54-130.54-2l-.26-1.48C194.72,298.11,265.48,299.7,335.7,301.33Z"/><path class="cls-2" d="M326.32,362.09l4.34.32c-5.65.7-11.29,6.54-17.33,5.7-1.35-.19-2.7-.71-4-.41S307,369,305.69,369a6.2,6.2,0,0,1-2.57-.93,9.46,9.46,0,0,0-12.38,5A29.54,29.54,0,0,1,271,371.23c-6.16-2.9-12.41-8.1-18.82-6.81-.23-.12-.45-.25-.68-.39a3.16,3.16,0,0,0-1-3.51A757.65,757.65,0,0,1,326.32,362.09Z"/><path class="cls-2" d="M309.7,387.66q5.66,0,11.29.2l0,1.47c-5.78,5.94-14.75,7.15-23,7.86a568.54,568.54,0,0,1-57.78,2,475.29,475.29,0,0,1-57.66-4.31c-5.1-.72-10.32-1.52-15.36-.45a52.67,52.67,0,0,1-5.67,1.26,23.48,23.48,0,0,1-6.72-.63l-22.33-4.27c-4.68-.89-9.48-1.83-13.53-4.34s-7.25-7-6.86-11.72l.07-1.29a218.74,218.74,0,0,0,31.59,3c4.69-5.13,11.84-7.63,18.79-8.76,13.93-2.28,28.15-.17,42.09,1.94l45.31,6.84c11.47,1.74,23,3.47,34.27,6.08,8.44,1.95,17,4.39,25.56,4.39Z"/><path class="cls-2" d="M240.06,446.67l23.62-1c9.21-.37,19-.62,27,3.91,2.8,1.58,5.35,3.73,8.44,4.59,3.45,1,7.53.34,10.25,2.66s2.63,6.2,1.36,9.54l-.62-.24-11.76,11.56-.05-.05c2.5-4.3-1.45-15.83-6.18-17.38a16.6,16.6,0,0,0-6.25-.41c-17.15,1.06-34.88,2.31-51.38-1.75l-.07.27c-5.65-.16-17.77-5.2-22.23-1.72-2.06,1.6-3.55,3.8-5.49,5.54-5,4.48-12.28,5.22-19,5.41-13.45.38-27.25-.59-40,3.6-1.92.63-3.82,1.37-5.76,1.91a21.17,21.17,0,0,1-2.36.53c-4.12.69-8.35-.08-12.52.23s-8.71,2.12-10.27,6l-.1,1.38-3.32-.24c-2.37-2.35.82-6.18,3.88-7.51s7.06-3.21,6.58-6.52c-.39-2.73-3.6-3.86-6.16-4.91s-5.27-3.83-3.79-6.16l14.41-4.76,66-2.67,36.3-1.47Z"/><path class="cls-1" d="M310.11,466.17l.62.24a13.17,13.17,0,0,1-.93,2c-2.09,3.61-5.3,6.55-6.9,10.4s-.66,9.35,3.32,10.61c-8.31,12.77-26.54,13.18-41.73,12-8.62-.68-17.26-1.41-25.9-2.05,4,.12,8,0,12-.24q5.75-.37,11.43-1.27c4.05-.65,8.27-1.57,11.37-4.27,1.8-1.56,3.12-3.63,5-5.11,4-3.19,9.81-3.07,14.21-5.72a25.29,25.29,0,0,0,4.53-3.81l1.2-1.18Z"/><path class="cls-1" d="M243.4,488.12a232,232,0,0,0-53-6.09c-9.75,0-19.83.57-28.88-3-6.38-2.54-13.05-7.14-19.45-5.3l-.16-.55c1.94-.54,3.84-1.28,5.76-1.91,12.79-4.19,26.59-3.22,40-3.6,6.73-.19,14-.93,19-5.41,1.94-1.74,3.43-3.94,5.49-5.54,4.46-3.48,16.58,1.56,22.23,1.72l.07-.27c16.5,4.06,34.23,2.81,51.38,1.75a16.6,16.6,0,0,1,6.25.41c4.73,1.55,8.68,13.08,6.18,17.38l.05.05-1.2,1.18a25.29,25.29,0,0,1-4.53,3.81c-4.4,2.65-10.18,2.53-14.21,5.72-1.86,1.48-3.18,3.55-5,5.11-3.1,2.7-7.32,3.62-11.37,4.27q-5.69.89-11.43,1.27l0-.71-11.46-8.27v-.24L243,490Z"/><path class="cls-1" d="M199.27,251.55c-5.19.56-10.36,1.2-15.48,2.21-10.21,2-20.08,5.46-30.14,8.15-15.71,4.2-31.86,6.53-48,8.23q-18,1.88-36.13,2.73c-9.9.46-20.67,1-28.89,6.05-.43-1.51-2.29-2.34-3.73-3.2-6.16-3.69-5.88-14-.35-18.05l-1.09-1.79c-3.43-6.63.65-15.15,7-19.14s14.1-4.58,21.55-5c44.77-2.27,89.63-.79,134.43.69l7.12.24,19.31.64,6.46.21,25.31.84,5.94.19v.16a138.48,138.48,0,0,1-42.74,14.37C213,250.22,206.11,250.81,199.27,251.55Zm-160.5,6c10-1.3,19.29-6.14,29.26-7.8a110.85,110.85,0,0,1,14.92-1c12-.36,23.86-1.42,35.76-2.49l20.69-1.85c4-.36,8.37-.92,11-3.94a8.21,8.21,0,0,0-9.53-1.56v1l-79.53.61a24.65,24.65,0,0,0-8.39,1A9.73,9.73,0,0,0,50.4,243a19.16,19.16,0,0,0-11,12.11l-.77,1.43Z"/><path class="cls-1" d="M236.15,176a133.31,133.31,0,0,0-6.36,32.3l1.15.09.27,12.21A18.56,18.56,0,0,0,238.35,210a10.27,10.27,0,0,0,0-5.5c-.44-1.41-1.3-2.65-1.78-4.05a15.62,15.62,0,0,1-.55-5.15Zm23.37-8c1.41.95,1.37,3,1.19,4.7q-3.27,30.53-4.12,61.23l0,.5-25.31-.84-6.46-.21.07-2.19a119.12,119.12,0,0,1-5-36.38l-1.11-.14a83,83,0,0,1,8.1-27l-.38-1.24,11.79-3.58a11.3,11.3,0,0,1,3.92-.7c4.56.28,7.6,5.87,12.17,5.78C256.13,167.85,258.07,167,259.52,168Z"/><path class="cls-2" d="M239.13,489.87v.24l11.46,8.27,0,.71c-4,.27-8,.36-12,.24-7-.52-14-1-21.05-1.29-7.31-.32-14.61-.5-21.9-.42-8,.08-15.91.45-23.85,1.24-18.28,1.81-37.1,5.74-54.69.45q1.22-8.9,2.41-17.81l-2.87-.21.1-1.38c1.56-3.88,6.1-5.69,10.27-6s8.4.46,12.52-.23a21.17,21.17,0,0,0,2.36-.53l.16.55c6.4-1.84,13.07,2.76,19.45,5.3,9.05,3.6,19.13,3,28.88,3a232,232,0,0,1,53,6.09L243,490Z"/><path class="cls-1" d="M250.45,333.41c-.76,5.38-1.53,10.78-2.29,16.16l.08,2.67q-13.38.42-26.78.42c-3.17,0-6.34,0-9.49,0l0-2.24a39.91,39.91,0,0,1,.63-14.45v-2.47Q231.52,333.61,250.45,333.41Z"/><path class="cls-1" d="M240.3,426.1a147.11,147.11,0,0,1-.24,20.57l-9.5.38-11.51-3.95c-2.16-.74-4.45-1.58-5.8-3.41-2.76-3.73-.19-8.92,2.38-12.78l0-1.15q9.39-.19,18.79-.36l5.88-.12Z"/><path class="cls-2" d="M238.39,204.52a10.27,10.27,0,0,1,0,5.5,18.56,18.56,0,0,1-7.14,10.58l-.27-12.21-1.15-.09a133.31,133.31,0,0,1,6.36-32.3l-.09,19.32a15.62,15.62,0,0,0,.55,5.15C237.09,201.87,238,203.11,238.39,204.52Z"/><path class="cls-1" d="M206.65,591.12c2.39-8.61,2.94-17.44,2.74-26.37l.61,0c-.09-11.76,7.63-22.33,8.58-34.06.44-5.41-.59-10.85-2-16.09s-2.94-11.55.93-15.29l0-1.25c7,.31,14,.77,21.05,1.29-1.16,0-2.33-.07-3.49-.13v.12C234,553.48,235.24,611,239.42,665A18.51,18.51,0,0,0,220,674.45Q215.5,669,211,663.61a13.86,13.86,0,0,0-13.19,4.85c-6.93-8.23-6.35-20.21-5.49-31,5.06-5.48,7.63-13.1,9-20.54,1.59-8.69,1.87-17.65,4.45-26.09Zm20.26,61.11a8.88,8.88,0,0,0,4.73-6.27c.67-3,.17-6.19-.39-9.24-3.28-18.17-8.2-36.7-9-55l-1.92.08q-3,10.24-5,20.74a84.81,84.81,0,0,0-1.5,11,54.25,54.25,0,0,0,12.79,38Z"/><path class="cls-2" d="M231.25,636.72c.56,3,1.06,6.21.39,9.24a8.88,8.88,0,0,1-4.73,6.27l-.23-.67a54.25,54.25,0,0,1-12.79-38,84.81,84.81,0,0,1,1.5-11q2-10.49,5-20.74l1.92-.08C223.05,600,228,618.55,231.25,636.72Z"/><path class="cls-2" d="M230.56,447.05l-36.3,1.47c-.36-6.37.73-14.91,1.12-20.72l0-1.65q10.13-.21,20.26-.39l0,1.15c-2.57,3.86-5.14,9-2.38,12.78,1.35,1.83,3.64,2.67,5.8,3.41Z"/><path class="cls-2" d="M218.77,194.64l1.11.14a119.12,119.12,0,0,0,5,36.38l-.07,2.19-19.31-.64,0-.51c1.49-18,4.44-38.61,5.93-56.63.12-1.53.3-3.19,1.34-4.33a7.08,7.08,0,0,1,3.32-1.7l10.39-3.16.38,1.24A83,83,0,0,0,218.77,194.64Z"/><path class="cls-2" d="M209.39,564.75c.2,8.93-.35,17.76-2.74,26.37l-.87-.24c-2.58,8.44-2.86,17.4-4.45,26.09-1.35,7.44-3.92,15.06-9,20.54,0-.07,0-.15,0-.22a1202.05,1202.05,0,0,0,3.26-137v-2.68c7.29-.08,14.59.1,21.9.42l0,1.25c-3.87,3.74-2.34,10.1-.93,15.29s2.46,10.68,2,16.09c-1,11.73-8.67,22.3-8.58,34.06Z"/><path class="cls-2" d="M212.3,411.4l1,1.11c-2.17,1.34-4.16,3-6.27,4.46a34.64,34.64,0,0,1-29.29,4.4,43.61,43.61,0,0,0-6.25-1.81c-2.62-.39-5.31,0-7.94-.34s-5.41-1.75-6.17-4.29l0-.59Z"/><path class="cls-2" d="M212.59,333.54V336a39.91,39.91,0,0,0-.63,14.45l0,2.24q-6.25,0-12.47.16c-.35-4.94-1.17-14.17-.32-19.41Z"/><path class="cls-2" d="M164.78,353.76l.05,1.56A316,316,0,0,0,116.35,361c-6.27,1.23-12.6,2.69-18.19,5.79-4.27,2.37-8.32,6.41-8.57,11.14l-2.71-.18a11.06,11.06,0,0,0-1.35-6.82c-1.64-2.75-4.58-4.42-6.85-6.67s-3.91-5.91-2.17-8.59a37.91,37.91,0,0,1,23.5-3.29c15.36.59,25.47,2.46,38,2.15C147,354.29,155.94,354,164.78,353.76Z"/><path class="cls-2" d="M148.7,413.58l.06,1.22L108.46,417c-3.64.19-8.19-.14-9.63-3.49l-.25-.25c3.19-3,8.59-3.25,13.08-2.29,5.12,1.1,10.24,3.26,15.4,2.4,1.82-.31,3.57-1,5.41-1.27C137.85,411.21,143.35,413.85,148.7,413.58Z"/><path class="cls-2" d="M140.86,240v-1a8.21,8.21,0,0,1,9.53,1.56c-2.61,3-7,3.58-11,3.94l-20.69,1.85c-11.9,1.07-23.81,2.13-35.76,2.49a110.85,110.85,0,0,0-14.92,1c-10,1.66-19.25,6.5-29.26,7.8l-.13-1.07.77-1.43A19.16,19.16,0,0,1,50.4,243a9.73,9.73,0,0,1,2.54-1.36,24.65,24.65,0,0,1,8.39-1Z"/><path class="cls-3" d="M35.43,255.88c-3.43-6.63.65-15.15,7-19.14s14.1-4.58,21.55-5c44.77-2.27,89.63-.79,134.43.69l7.12.24,19.31.64,6.46.21,25.31.84,5.94.19L408,239.41c2.71.09,5.71.3,7.59,2.25,3.35,3.47.56,9.39-3.21,12.39s-8.65,5.13-10.62,9.53l.72.07c3.6.38,7.34.94,10.15,3.18,3,2.39,4.2,7.42,1.39,10l8.28,1.81a67,67,0,0,1-7.61,16.42c-2.41,3.78-6.22,7.72-10.6,6.79a2.62,2.62,0,0,0-.87,2.42c.46,3.17,5.79,6.95,5.62,11-.09,1.89-1.43,3.47-2.86,4.71-7.56,6.6-18.33,7.66-28.34,8.35q-53.54,3.67-107.2,4.75-10,.21-20,.31-18.93.21-37.86.13l-13.41-.09q-29-.27-57.9-1.1c-30.07-.86-60.15-2.11-90.1-4.89-5.37-.5-11.4-1.42-14.53-5.8s.67-12.55,5.73-10.71c-8.59-6.24-10.27-20.06-3.42-28.18.82-1,1.8-2,1.74-3.3a2,2,0,0,0-.1-.55c-.43-1.51-2.29-2.34-3.73-3.2-6.16-3.69-5.88-14-.35-18.05a8.85,8.85,0,0,1,2.12-1.15"/><path class="cls-3" d="M100,352.37a37.91,37.91,0,0,0-23.5,3.29c-1.74,2.68-.11,6.34,2.17,8.59s5.21,3.92,6.85,6.67a11.06,11.06,0,0,1,1.35,6.82c-.82,9.29-9.52,20.16-3,27a29,29,0,0,1,3.09,3c3.26,4.56-2,10.31-6.65,13.43,4,6.42,13,7,20.61,6.84l94.43-1.81q10.13-.21,20.26-.39,9.39-.19,18.79-.36l5.88-.12,42.87-.82c13.61-.26,27.24-.53,40.79-1.79,7.36-.68,16.92-4.34,15.88-11.66-.47-3.35-3.33-6.33-2.64-9.64.81-3.9,5.86-5.3,7.75-8.8,2.67-5-2.12-10.63-2.65-16.24,0,0,0-.09,0-.13-.54-6.54,4.8-12.83,3.26-19.23-2-8.57-13.61-9.75-22.4-9.08-24.93,1.9-49.9,3.61-74.89,4.35q-13.38.42-26.78.42c-3.17,0-6.34,0-9.49,0q-6.25,0-12.47.16c-11.56.2-23.09.54-34.72.9-8.84.26-17.75.53-26.77.76-12.53.31-22.64-1.56-38-2.15"/><path class="cls-3" d="M128.27,451.18h0L113.83,456c-1.48,2.33,1.24,5.11,3.79,6.16s5.77,2.18,6.16,4.91c.48,3.31-3.51,5.2-6.58,6.52s-6.25,5.16-3.88,7.51l3.32.24,2.87.21q-1.2,8.91-2.41,17.81c17.59,5.29,36.41,1.36,54.69-.45,7.94-.79,15.89-1.16,23.85-1.24,7.29-.08,14.59.1,21.9.42,7,.31,14,.77,21.05,1.29,8.64.64,17.28,1.37,25.9,2.05,15.19,1.19,33.42.78,41.73-12-4-1.26-4.91-6.75-3.32-10.61s4.81-6.79,6.9-10.4a13.17,13.17,0,0,0,.93-2c1.27-3.34,1.27-7.29-1.36-9.54s-6.8-1.7-10.25-2.66c-3.09-.86-5.64-3-8.44-4.59-8-4.53-17.79-4.28-27-3.91l-23.62,1-9.5.38-36.3,1.47-66,2.67-3.45.14"/><path class="cls-3" d="M294,269.25l2.75.06a511.05,511.05,0,0,0,72.21-3.7l.74-.09"/><path class="cls-3" d="M339,281.52h34.87"/><path class="cls-3" d="M121.7,310.8l3.85-.68c69.17-12,139.93-10.42,210.15-8.79"/><path class="cls-3" d="M397.82,312.18c-2.64,5.07-9.39,5.94-15.1,6.19l-41.13,1.78"/><path class="cls-3" d="M401.22,250.33c-16.1,1-32.16-1.74-48.22-3.31s-32.72-1.87-47.79,3.89"/><path class="cls-3" d="M51.5,317.76c3.93.59,7.91.8,11.88,1q38.31,2,76.65,3.49"/><path class="cls-3" d="M47.32,247.5A7.38,7.38,0,0,1,50.4,243a9.73,9.73,0,0,1,2.54-1.36,24.65,24.65,0,0,1,8.39-1l79.53-.61,3.43,0"/><path class="cls-3" d="M86.46,258.55q47.69-1.38,95.16-6.64"/><path class="cls-3" d="M98.83,413.46c1.44,3.35,6,3.68,9.63,3.49l40.3-2.15,8.56-.46,55-2.94"/><path class="cls-3" d="M333.29,362.61l-2.63-.2-4.34-.32a757.65,757.65,0,0,0-75.8-1.57c-5.67.16-11.34.4-17,.69"/><path class="cls-3" d="M112.1,373.41a219.7,219.7,0,0,0,57.73,2"/><path class="cls-3" d="M322,387.89l-1,0q-5.64-.15-11.29-.2-27.45-.29-54.87,1.8"/><path class="cls-3" d="M188.45,458.83a209.79,209.79,0,0,1-64.58-2.1"/><path class="cls-3" d="M130.71,490.53l28.1-.54c26.77-.52,53.56-1,80.32-.12L243,490"/><path class="cls-3" d="M298.3,477.68c2.5-4.3-1.45-15.83-6.18-17.38a16.6,16.6,0,0,0-6.25-.41c-17.15,1.06-34.88,2.31-51.38-1.75a72.4,72.4,0,0,1-10.22-3.3"/><path class="cls-3" d="M205.51,232.2c1.49-18,4.44-38.61,5.93-56.63.12-1.53.3-3.19,1.34-4.33a7.08,7.08,0,0,1,3.32-1.7l10.39-3.16,11.79-3.58a11.3,11.3,0,0,1,3.92-.7c4.56.28,7.6,5.87,12.17,5.78,1.76,0,3.7-.9,5.15.09s1.37,3,1.19,4.7q-3.27,30.53-4.12,61.23"/><path class="cls-3" d="M199.56,331.7a10.89,10.89,0,0,0-.38,1.75c-.85,5.24,0,14.47.32,19.41,0,.34,0,.66.06.95"/><path class="cls-3" d="M250.57,332.55l-.12.86c-.76,5.38-1.53,10.78-2.29,16.16"/><path class="cls-3" d="M195.38,427.8c-.39,5.81-1.48,14.35-1.12,20.72,0,.78.11,1.52.2,2.23"/><path class="cls-3" d="M240.3,426.1a147.11,147.11,0,0,1-.24,20.57c-.09,1.09-.19,2.17-.3,3.26"/><path class="cls-3" d="M195.63,500.3a1202.05,1202.05,0,0,1-3.26,137c0,.07,0,.15,0,.22-.86,10.74-1.44,22.72,5.49,31A13.86,13.86,0,0,1,211,663.61Q215.5,669,220,674.45A18.51,18.51,0,0,1,239.42,665c-4.18-54-5.41-111.51-4.33-165.67"/><path class="cls-3" d="M226.87,167.62a83,83,0,0,0-8.1,27,81.31,81.31,0,0,0-.61,10c0,7.05.83,14.53-2.46,20.76"/><path class="cls-3" d="M243.4,187.26A42.87,42.87,0,0,1,245.06,208c-.84,5-2.44,10.63.49,14.76"/><path class="cls-3" d="M237,173.53c-.29.82-.57,1.65-.84,2.47a133.31,133.31,0,0,0-6.36,32.3s0,.08,0,.12"/><path class="cls-3" d="M212.58,336a39.91,39.91,0,0,0-.63,14.45"/><path class="cls-3" d="M237,351.26V341.9"/><path class="cls-3" d="M207.21,426.94v10.21"/><path class="cls-3" d="M208.1,506.73c-3.14,19,.85,38.77,1.29,58,.2,8.93-.35,17.76-2.74,26.37-.08.32-.18.64-.27,1"/><path class="cls-3" d="M225,554.46a88.35,88.35,0,0,0-2.71,27.3c.78,18.26,5.7,36.79,9,55,.56,3,1.06,6.21.39,9.24a8.88,8.88,0,0,1-4.73,6.27,6.63,6.63,0,0,1-1.09.36"/><path class="cls-3" d="M39.41,255.09A19.16,19.16,0,0,1,50.4,243a17.94,17.94,0,0,1,8-1.45"/><path class="cls-3" d="M37.93,257.69l.84-.1c10-1.3,19.29-6.14,29.26-7.8a110.85,110.85,0,0,1,14.92-1c12-.36,23.86-1.42,35.76-2.49l20.69-1.85c4-.36,8.37-.92,11-3.94a8.21,8.21,0,0,0-9.53-1.56"/><path class="cls-3" d="M36,282.46a24.88,24.88,0,0,1,4.57-3.54c8.22-5,19-5.59,28.89-6.05q18.09-.84,36.13-2.73c16.17-1.7,32.32-4,48-8.23,10.06-2.69,19.93-6.14,30.14-8.15,5.12-1,10.29-1.65,15.48-2.21,6.84-.74,13.7-1.33,20.49-2.43a138.48,138.48,0,0,0,42.74-14.37"/><path class="cls-3" d="M199.05,251.49l.22.06a96.83,96.83,0,0,0,37.07,3.78c7.93-.74,15.81-2.46,23.77-2.25s15.45,2.28,23.16,3.61c32.22,5.58,67-1.4,98.32,4.81A92.09,92.09,0,0,1,402.12,268c1.31.6,2.61,1.23,3.9,1.91"/><path class="cls-3" d="M36.44,288.38c-2.13,4.29,2.25,9.36,7,10.27s9.46-.74,14.22-1.31c10.86-1.31,21.58,3,32.51,3.72,8.3.53,16.56-1,24.79-2.24a278.33,278.33,0,0,1,90.38,1.73"/><path class="cls-3" d="M125.81,311.6c43.34,6.52,88.11,13,130.54,2,7.35-1.91,14.57-4.33,22-5.71,19-3.51,39.05-.18,57.54-5.74l.28-.08"/><path class="cls-3" d="M294.17,271.75a6.34,6.34,0,0,1,2.5-.5,7.46,7.46,0,0,1,7.19,5.43c.39,1.69.16,3.54.86,5.13.81,1.85,2.69,3,4.44,3.95,12.25,6.88,25.19,14,39.23,14,4.81,0,9.59-.82,14.4-.74,13.54.23,26.68,7.59,40,5.34"/><path class="cls-3" d="M368.92,265.58a27.15,27.15,0,0,1,12.61-3.79"/><path class="cls-3" d="M402.13,268a2,2,0,0,1-.57-1.59.83.83,0,0,1,.79-.57.46.46,0,0,1,.47.32"/><path class="cls-3" d="M219.88,194.78a119.12,119.12,0,0,0,5,36.38"/><path class="cls-3" d="M230.94,208.39l.27,12.21A18.56,18.56,0,0,0,238.35,210a10.27,10.27,0,0,0,0-5.5c-.44-1.41-1.3-2.65-1.78-4.05a15.62,15.62,0,0,1-.55-5.15l.09-19.32c0-.54,0-1.08,0-1.62"/><path class="cls-3" d="M89.64,379.37a8.83,8.83,0,0,1,0-1.45c.25-4.73,4.3-8.77,8.57-11.14,5.59-3.1,11.92-4.56,18.19-5.79a316,316,0,0,1,48.48-5.67l3.25-.11"/><path class="cls-3" d="M237.69,360.08l7.5-.5c1.75-.11,3.64-.19,5.11.77a1.84,1.84,0,0,1,.22.17,3.16,3.16,0,0,1,1,3.51,1.78,1.78,0,0,1-.62.75,10.5,10.5,0,0,1,1.3-.36c6.41-1.29,12.66,3.91,18.82,6.81a29.54,29.54,0,0,0,19.72,1.85,9.46,9.46,0,0,1,12.38-5,6.2,6.2,0,0,0,2.57.93c1.29,0,2.36-1,3.61-1.3s2.68.22,4,.41c6,.84,11.68-5,17.33-5.7a7.72,7.72,0,0,1,3.84.44"/><path class="cls-3" d="M248.8,362.46l2.72,1.57c.23.14.45.27.68.39l.89.52"/><path class="cls-3" d="M112,374.7c-.39,4.75,2.81,9.21,6.86,11.72s8.85,3.45,13.53,4.34L154.75,395a23.48,23.48,0,0,0,6.72.63,52.67,52.67,0,0,0,5.67-1.26c5-1.07,10.26-.27,15.36.45a475.29,475.29,0,0,0,57.66,4.31,568.54,568.54,0,0,0,57.78-2c8.26-.71,17.23-1.92,23-7.86"/><path class="cls-3" d="M142.41,377.93a18.52,18.52,0,0,1,1.28-1.53c4.69-5.13,11.84-7.63,18.79-8.76,13.93-2.28,28.15-.17,42.09,1.94l45.31,6.84c11.47,1.74,23,3.47,34.27,6.08,8.44,1.95,17,4.39,25.56,4.39a41.17,41.17,0,0,0,4.83-.28"/><path class="cls-3" d="M97.39,414.63a7.86,7.86,0,0,1,1.19-1.42c3.19-3,8.59-3.25,13.08-2.29,5.12,1.1,10.24,3.26,15.4,2.4,1.82-.31,3.57-1,5.41-1.27,5.38-.84,10.88,1.8,16.23,1.53a12.9,12.9,0,0,0,2.37-.34"/><path class="cls-3" d="M157.35,414.93c.76,2.54,3.54,3.94,6.17,4.29s5.32-.05,7.94.34a43.61,43.61,0,0,1,6.25,1.81A34.64,34.64,0,0,0,207,417c2.11-1.43,4.1-3.12,6.27-4.46a15.94,15.94,0,0,1,4.12-1.86"/><path class="cls-3" d="M234.38,424.46c5.74-5.79,15-5.23,23.17-5.62,13.13-.64,25.8-4.78,38.23-9,10.1-3.47,20.28-7.12,29.13-13.1,7.53-5.09,14.08-12.11,17.36-20.49a32.3,32.3,0,0,0,1.42-4.54"/><path class="cls-3" d="M179.15,449.05H180"/><path class="cls-3" d="M116.74,479.91c1.56-3.88,6.1-5.69,10.27-6s8.4.46,12.52-.23a21.17,21.17,0,0,0,2.36-.53c1.94-.54,3.84-1.28,5.76-1.91,12.79-4.19,26.59-3.22,40-3.6,6.73-.19,14-.93,19-5.41,1.94-1.74,3.43-3.94,5.49-5.54,4.46-3.48,16.58,1.56,22.23,1.72"/><path class="cls-3" d="M233.59,499.11l1.51.09c1.16.06,2.33.11,3.49.13,4,.12,8,0,12-.24q5.75-.37,11.43-1.27c4.05-.65,8.27-1.57,11.37-4.27,1.8-1.56,3.12-3.63,5-5.11,4-3.19,9.81-3.07,14.21-5.72a25.29,25.29,0,0,0,4.53-3.81l1.2-1.18,11.76-11.56"/><path class="cls-3" d="M141,474.05c.34-.13.68-.25,1-.35,6.4-1.84,13.07,2.76,19.45,5.3,9.05,3.6,19.13,3,28.88,3a232,232,0,0,1,53,6.09l.39.09"/><path class="cls-3" d="M239.12,490.11l11.46,8.27"/><path class="cls-3" d="M215.63,426.91c-2.57,3.86-5.14,9-2.38,12.78,1.35,1.83,3.64,2.67,5.8,3.41l11.51,3.95,1.49.51"/><path class="cls-3" d="M217.49,499.29c-3.87,3.74-2.34,10.1-.93,15.29s2.46,10.68,2,16.09c-1,11.73-8.67,22.3-8.58,34.06"/><path class="cls-3" d="M205.78,590.88c-2.58,8.44-2.86,17.4-4.45,26.09-1.35,7.44-3.92,15.06-9,20.54a24.92,24.92,0,0,1-2.76,2.57"/><path class="cls-3" d="M220.35,581.84q-3,10.24-5,20.74a84.81,84.81,0,0,0-1.5,11,54.25,54.25,0,0,0,12.79,38"/><path class="cls-4" d="M37.59,254.62c-2.59-5.88,1.07-12.45,6.06-15.72,5.46-3.58,12.36-4.15,18.69-4.53,13.68-.82,27.42-1.09,41.12-1.21,27.69-.25,55.38.53,83.05,1.43q83,2.68,165.91,5.48l45.68,1.51c3.74.13,7.57,0,11.3.39,6.34.6,6,5.71,2.25,9.43-4,4-9.2,5.68-12,10.92a2.54,2.54,0,0,0,2.16,3.76,27.07,27.07,0,0,1,6.45,1.18c2.73,1,6.87,4.44,4.05,7.84-1.12,1.34-.89,3.74,1.1,4.18l8.27,1.81L419.92,278c-2.07,6.39-4.91,14.1-9.81,19-3.05,3-9.43,1.27-9.4,7,0,3.62,3.48,5.78,4.83,8.79,3.12,6.94-10.37,10.56-15,11.53-13.77,2.87-28.62,2.59-42.62,3.36q-22.82,1.26-45.66,2.05c-59.52,2-119.12,1.64-178.63-.45-16.34-.57-32.67-1.33-49-2.45-8.27-.56-16.59-1-24.82-2-2.95-.35-6.61-.82-9.08-2.64C39.14,321,38,319.67,38,317.6s1.29-4.82,3.71-4.24c2.21.54,4.52-2.53,2.43-4.18a17.77,17.77,0,0,1-6.92-14.78,17.13,17.13,0,0,1,2.41-8.31c1.2-2,3.24-3.5,3.47-5.95.46-4.85-4.9-5.34-7-8.63a9,9,0,0,1,3.84-12.83c2.93-1.31.39-5.62-2.53-4.32a13.36,13.36,0,0,0-7.57,12.34A14,14,0,0,0,31.75,274a12,12,0,0,0,2.47,2.84c.67.57,3.6,1.82,3.79,2.51.24.91-2.18,3.33-2.69,4.17a21.11,21.11,0,0,0-1.87,4,23,23,0,0,0-1.14,9.38,22.23,22.23,0,0,0,8.31,15.78l2.43-4.18c-9.38-2.25-12.73,10.71-6.86,16.36,3.8,3.65,9.29,4.47,14.31,5,8.68.91,17.4,1.5,26.1,2.09,34.42,2.3,69,3.18,103.44,3.73,35.11.56,70.23.48,105.33-.46q26.33-.71,52.63-2c16.44-.83,33.28-1,49.59-3.34,9.06-1.3,30.05-7.72,21.69-20.51-.69-1.05-1.52-2-2.22-3a14.22,14.22,0,0,1-.84-1.24c-.71-1.4-.79-.28,0-.66,2.49-1.16,4.62-1.36,6.83-3.4,5.91-5.43,9.25-14.23,11.66-21.69a2.51,2.51,0,0,0-1.75-3.07l-8.27-1.82,1.1,4.18a9.27,9.27,0,0,0-.07-12.17c-3.38-4.16-9-4.85-14-5.38l2.16,3.76c3.65-6.78,21.8-13.25,14.22-23.93-2.8-3.94-7.76-3.91-12.13-4.06-8.27-.3-16.55-.55-24.82-.83l-96.33-3.18c-63-2.09-126.25-5.59-189.33-4.59q-12.86.21-25.69.75c-7.42.33-15.3.29-22.42,2.67-10.6,3.55-19.16,14.17-14.18,25.47,1.29,2.94,5.6.4,4.32-2.52Z"/><path class="cls-4" d="M100.68,350a43.72,43.72,0,0,0-15.05,0c-3.65.68-10.2,1.78-11.82,5.6-3.79,8.9,9.43,12.32,10.53,19.57s-4.42,14.28-5.23,21.32A12.24,12.24,0,0,0,81,405.17c1.32,1.88,3.1,2.66,3.75,4.95,1.06,3.78-2.87,6.81-5.74,8.84a2.54,2.54,0,0,0-.89,3.42c4.09,5.76,10.46,7.58,17.26,8,10.34.64,20.91-.21,31.26-.41l67.35-1.3,67.34-1.29c21.26-.41,43.34.63,64.42-2.42,5.68-.83,12.74-3,15.57-8.54a10.1,10.1,0,0,0,.55-7.48c-.53-1.81-2-3.6-2.17-5.46-.36-3.41,2.58-4.6,4.61-6.44,6.34-5.71,2.74-11.65.92-18.57-2.16-8.2,5.42-15.6,2.1-23.88-5.71-14.21-29.73-8.76-40.83-8-22.13,1.58-44.29,2.87-66.48,3.34-24.55.53-49.1.51-73.65,1.25-11.71.35-23.52,1.15-35.23.78-10.41-.34-20.75-1.68-31.16-2.12-3.21-.13-3.21,4.87,0,5,8.44.36,16.83,1.24,25.26,1.81,8.84.6,17.67.22,26.52,0,20-.58,40-1.28,60-1.44s39.72-.39,59.58-1.39q15.16-.78,30.3-1.85c9-.62,18.14-2,27.12-1.7,8.43.3,16.5,3.49,13.78,13.45-.87,3.22-2.3,6.25-2.68,9.6-.42,3.83.77,7.11,2,10.67.71,2,1.82,4.54,1.14,6.67-.56,1.73-2.36,2.92-3.67,4-2.1,1.76-4.14,3.53-4.65,6.37-.63,3.53,1.56,6,2.36,9.22,1.14,4.6-2.78,7.05-6.58,8.45-8.22,3-18.3,2.41-26.93,2.73-10.11.38-20.22.52-30.32.71l-60.42,1.16-68.33,1.32-33.68.64c-8.45.17-22.61,2.67-28.36-5.41l-.89,3.42c5.1-3.62,12-10.51,7.35-17.11-2.49-3.52-5.4-4.48-4.82-9.36.42-3.62,2-7.08,3.2-10.5,2-5.81,3.58-12.4-.39-17.76-2.28-3.09-12-8.21-5.76-12.15,4.7-2.95,13-2.45,18.2-1.62,3.15.5,4.5-4.31,1.33-4.82Z"/><path class="cls-4" d="M127.6,448.77c-4.21,1.39-8.44,2.73-12.63,4.17-2.07.72-3.53,1.17-4,3.54a6.42,6.42,0,0,0,1.92,5.33c1.57,1.74,5.66,2.32,6.8,4,2.81,4-4.17,5.54-6,7s-3.38,3.33-3.63,5.62c-.64,5.94,5.32,5.3,9.43,5.6l-2.41-3.17-2.41,17.81a2.58,2.58,0,0,0,1.75,3.08c17,4.82,34.44,1.92,51.68,0,18.92-2.09,37.94-1.91,56.91-.82,17.21,1,34.67,3.83,51.92,3.36,12-.33,24.23-3.24,31.43-13.63a2.51,2.51,0,0,0-.9-3.42c-8-3.54,2.28-13.66,4.48-17.6,2.09-3.75,3.09-8.79.72-12.64-3.19-5.18-9.21-3.72-14.06-5.68-3.14-1.27-5.77-3.53-8.85-4.94a34.92,34.92,0,0,0-9.4-2.7c-6.83-1.05-13.78-.59-20.65-.31l-25.8,1.05-50.6,2.05-58.53,2.37c-3.21.13-3.22,5.13,0,5l127-5.15c9.54-.38,19.73-1.71,29.19.13,8.14,1.58,13.92,7.4,22.19,8.54,13.63,1.88-.55,15-2.67,20.76-1.79,4.89-.66,11.18,4.47,13.43l-.9-3.42c-7.77,11.22-23.16,11.66-35.49,11-16.5-.86-32.95-2.75-49.46-3.53a324,324,0,0,0-51,1.13c-16.76,1.85-33.78,4.84-50.35.15l1.74,3.08,2.41-17.81a2.55,2.55,0,0,0-2.41-3.16l-6.19-.45,2.16,1.23c-1.89-2.77,5.94-5.29,7.61-6.6a7.46,7.46,0,0,0,3.17-5,6.54,6.54,0,0,0-2.49-5.69c-1.51-1.31-8.47-3.15-7.53-5.9l-1.75,1.75,14.44-4.77c3-1,1.74-5.83-1.33-4.82Z"/><path class="cls-4" d="M294,271.07a385.34,385.34,0,0,0,76.19-3.77c2-.31,1.58-3.81-.49-3.62-25.24,2.32-50.35,3.72-75.7,3.76-2.34,0-2.32,3.51,0,3.63Z"/><path class="cls-4" d="M339,283.15c11.62.18,23.25.32,34.87.13a1.75,1.75,0,0,0,0-3.5c-11.62-.19-23.25-.06-34.87.12a1.63,1.63,0,0,0,0,3.25Z"/><path class="cls-4" d="M122.13,312.34c35.36-6.23,71.25-9,107.12-10,17.57-.47,35.18-.57,52.74.11,8.79.33,17.58.8,26.38,1,9,.26,18.39,1.4,27.33.44,2.66-.29,3.88-4.66.69-5.16-8.51-1.32-17.47-.74-26.07-.84-9.12-.1-18.24,0-27.35.19-18.23.31-36.47.29-54.69.79-35.87,1-71.67,3.89-107,10.33-2,.37-1.16,3.43.85,3.07Z"/><path class="cls-4" d="M396.5,311.41c-4.67,7.25-18.15,5.19-25.53,5.46-9.74.36-19.68.25-29.38,1.29-2.5.26-2.63,3.94,0,4,12.33.24,24.91-1,37.21-1.71,7.29-.45,16.15-.44,20.34-7.5,1-1.7-1.58-3.19-2.64-1.54Z"/><path class="cls-4" d="M401.22,248.71c-32,1.32-65.45-11.93-96.54.28-2.35.92-1.42,4.7,1.06,3.85,31.28-10.65,63.55,1.37,95.48-.88,2.07-.14,2.11-3.34,0-3.25Z"/><path class="cls-4" d="M50.15,319.11c3.58,3.81,12.29,2.79,17.16,3.05,8.18.44,16.38.67,24.56.87,16,.38,32.18,1.83,48.16,1.14,2.51-.11,2.38-3.53,0-3.82-15.59-1.89-31.51-1.83-47.17-2.94-7.86-.55-15.72-1.07-23.58-1.5-3.38-.19-6.77-.28-10.15-.45-3.11-.16-5.86-1-8.59.66a1.93,1.93,0,0,0-.39,3Z"/><path class="cls-4" d="M48.64,248.27c4.3-7.67,15-5.58,22.57-5.65l24.69-.24c16.11-.17,32.29.07,48.39-.58a1.85,1.85,0,0,0,0-3.69c-19.39-.5-38.87.1-58.27.21-9.28.06-18.85-.53-28.1.27-5.36.46-11.56,2.83-12.13,8.91-.14,1.55,2.15,2,2.85.77Z"/><path class="cls-4" d="M86.46,260.05c31.81-.67,63.54-3,95.16-6.51,2.06-.23,2.08-3.48,0-3.25-31.62,3.46-63.38,5.54-95.16,6.76-1.93.07-1.94,3,0,3Z"/><path class="cls-4" d="M97.54,414.22c3.21,6,11.31,4.54,16.91,4.29,11-.49,22-1.09,33-1.69,21.6-1.17,43.35-1.7,64.9-3.64,2.24-.2,2.33-3.6,0-3.56-19,.33-38,1.88-56.91,2.88l-28,1.47c-4.66.25-9.32.56-14,.85-3.77.23-10.83,1.84-13.32-2.12a1.5,1.5,0,0,0-2.59,1.52Z"/><path class="cls-4" d="M333.69,361.14c-16.2-3.08-33.37-3.16-49.81-3.46-16.75-.3-34.37-1.13-51,1.27-2.72.4-1.89,4.5.62,4.61,8.5.37,17.16-.4,25.67-.56,8.23-.16,16.47-.22,24.7-.12,16.41.18,33,1.87,49.41,1.27,1.64-.07,2.17-2.68.4-3Z"/><path class="cls-4" d="M111.69,374.92a226.89,226.89,0,0,0,58.14,2.16c2.11-.19,2.12-3.51,0-3.31a224,224,0,0,1-57.31-1.87c-2-.32-2.81,2.69-.83,3Z"/><path class="cls-4" d="M322,386.23a517.65,517.65,0,0,0-67.18,1.36c-2.38.19-2.42,3.91,0,3.75,22.37-1.49,44.77-1.94,67.18-1.79,2.15,0,2.12-3.21,0-3.32Z"/><path class="cls-4" d="M188.45,457.33a197.74,197.74,0,0,1-32.37.82c-10.83-.65-21.43-3.12-32.21-3.83-2.79-.18-3.15,3.95-.64,4.73,10,3.12,21.45,3.25,31.9,3.36a236.45,236.45,0,0,0,33.32-2.08c1.87-.25,1.94-3.2,0-3Z"/><path class="cls-4" d="M130.71,492.13c18.51.2,37-.17,55.5-.43,18.93-.27,37.85.54,56.76.34,2.65,0,2.57-3.84,0-4.06-18.75-1.62-37.95-.87-56.76-.64-18.5.22-37,.69-55.5,1.6a1.6,1.6,0,0,0,0,3.19Z"/><path class="cls-4" d="M298.1,473.27a10.62,10.62,0,0,0-2.61-13c-4.82-3.9-12.9-2-18.56-1.73-17.92.77-35,.43-52.13-5.59-2.11-.74-3.62,2.74-1.54,3.66,11.44,5,24.23,6.31,36.61,6.39,6.6,0,13.17-.32,19.75-.79a76.19,76.19,0,0,1,9.41-.58c5.15.27,8.63,5.17,6.37,10.1-.83,1.81,1.81,3.4,2.7,1.58Z"/><path class="cls-4" d="M209.08,229.64c1.79-14.1,2.73-28.32,3.88-42.48.27-3.38-.35-8.49.94-11.59,1.77-4.22,6.37-4.73,10.24-5.91l11.09-3.39c3.39-1,6.41-2.53,9.74-.56,2,1.19,3.65,2.89,5.84,3.78,1.88.77,3.4.15,5.22.58,3.94.92,2.05,5.4,1.74,8.51q-.51,5.41-1,10.85-2,22.2-2.67,44.48c-.1,3.21,4.92,3.22,5,0,.47-18.47,1.45-36.95,3.34-55.33.47-4.61,2.51-12.41-4.08-13.41-1.33-.2-2.67.43-4,.34-2-.14-3.34-1.38-4.88-2.44-2.2-1.53-4.21-3.1-7-3.33-2.92-.26-5.84,1-8.58,1.84L221,165.5c-6.36,1.92-11.25,2.69-12,10.07-1.86,17.92-3.4,36.07-4.08,54.07-.1,2.77,3.86,2.59,4.19,0Z"/><path class="cls-4" d="M201.43,333c-1.75,5.1-2.88,10.85-2,16.24.36,2.22,3.63,1.52,3.75-.51.28-5.06.3-9.86,1.52-14.83a1.69,1.69,0,0,0-3.25-.9Z"/><path class="cls-4" d="M249,332.13c-1,5.63-2,11.26-2.78,16.92-.35,2.48,3.44,3.55,3.8,1.05.83-5.84,1.48-11.68,2.11-17.55.19-1.77-2.82-2.19-3.13-.42Z"/><path class="cls-4" d="M193.82,427.8c-.85,6.44-1,13.7.37,20.07.46,2,3.67,1.58,3.63-.49-.14-6.52-.81-13-.88-19.58,0-2.07-2.87-1.93-3.12,0Z"/><path class="cls-4" d="M238.77,426.1c-.38,6.59-.92,13.39-1,20,0,2,3.11,2.48,3.5.47a61.42,61.42,0,0,0,.52-20.86c-.29-1.78-2.91-1.22-3,.41Z"/><path class="cls-4" d="M193.67,500.3c.24,30.82.58,61.57-.75,92.37-.66,15.15-1.67,30.28-2.83,45.4-.86,11.15-1.09,22.76,6.18,32a2.22,2.22,0,0,0,3.13,0c2.52-2.88,7.72-6.3,11.34-3.66,3,2.22,5.48,6.58,7.85,9.44a1.94,1.94,0,0,0,3-.39,16.64,16.64,0,0,1,17.32-8.7,1.82,1.82,0,0,0,2.28-1.73q-6-81-4.37-162.39c.06-2.69-4.14-2.69-4.19,0q-1.42,81.27,5,162.39l2.28-1.73a21,21,0,0,0-21.61,10.22l3-.39c-2.22-2.72-4.46-5.43-6.67-8.16-1.68-2.09-2.33-3.35-5.08-3.55a16.41,16.41,0,0,0-13.3,5.52h3.13c-8.07-10.44-5.09-25.38-4.18-37.53q1.58-21.32,2.41-42.66c1.12-28.75,1.6-57.67,0-86.41-.14-2.51-3.95-2.56-3.93,0Z"/><path class="cls-4" d="M225.36,166.74A84.16,84.16,0,0,0,217,193.33c-1.31,10,1.52,21.82-2.84,31.18-.94,2,2.05,3.81,3,1.77,3.95-8.26,2.44-17.17,2.95-26a85.7,85.7,0,0,1,8.22-31.76c1-2-2-3.8-3-1.77Z"/><path class="cls-4" d="M241.89,187.68A45.11,45.11,0,0,1,243,209.87c-.88,4.76-1.67,9.51,1.09,13.8a1.72,1.72,0,0,0,3-1.73c-3-5.68-.12-12.25.21-18.25a46.27,46.27,0,0,0-2.33-16.84c-.62-1.91-3.61-1.11-3,.83Z"/><path class="cls-4" d="M235.36,173.08a130.28,130.28,0,0,0-7.3,35.35c-.15,2.22,3.24,2.17,3.44,0A151.72,151.72,0,0,1,238.62,174c.69-2.07-2.54-2.92-3.26-.9Z"/><path class="cls-4" d="M211.1,335.61a41,41,0,0,0-.74,15.29c.27,1.83,3.44,1.42,3.25-.44a45.3,45.3,0,0,1,.45-14c.39-1.92-2.51-2.74-3-.81Z"/><path class="cls-4" d="M238.6,351.26l0-9.35a1.66,1.66,0,0,0-3.31,0l0,9.35a1.63,1.63,0,0,0,3.25,0Z"/><path class="cls-4" d="M205.65,426.94c0,3.41-.09,6.81-.09,10.21a1.66,1.66,0,0,0,3.31,0c0-3.4-.06-6.8-.09-10.21a1.57,1.57,0,0,0-3.13,0Z"/><path class="cls-4" d="M206.56,506.31c-4.52,28.37,5.82,57.31-1.72,85.35a1.6,1.6,0,0,0,3.08.85c8.09-28.07-2.46-57,1.72-85.35.29-2-2.75-2.88-3.08-.85Z"/><path class="cls-4" d="M223.41,554c-4.06,15-3.58,30.33-1.26,45.57,1.22,8,2.87,16,4.49,23.93,1.4,6.91,7.68,23.64-1.29,27.34-2.06.85-1.34,4.07.94,3.44,6.32-1.74,8.1-7.92,7.55-13.89-.83-9.09-3.43-18.2-5.21-27.14-3.83-19.21-6.87-39.07-2.09-58.39a1.62,1.62,0,0,0-3.13-.86Z"/><text class="cls-5" transform="translate(95.71 295.93)"><tspan class="cls-6">R</tspan><tspan class="cls-7" x="49.7" y="0">E</tspan><tspan x="81.52" y="0">SUME</tspan></text><text class="cls-8" transform="translate(131.57 476.99)">T<tspan class="cls-9" x="19.36" y="0">I</tspan><tspan x="25.4" y="0">TLE SC</tspan><tspan class="cls-10" x="102.81" y="0">R</tspan><tspan class="cls-9" x="119.66" y="0">E</tspan><tspan x="130.45" y="0">EN</tspan></text><text class="cls-11" transform="translate(166.98 397.01)"><tspan class="cls-12">E</tspan><tspan x="21.51" y="0">X</tspan><tspan class="cls-13" x="50.66" y="0">I</tspan><tspan x="62.69" y="0">T</tspan></text></svg>